<svg xmlns="http://www.w3.org/2000/svg" version="1.1" xmlns:xlink="http://www.w3.org/1999/xlink" xmlns:svgjs="http://svgjs.dev/svgjs" width="1440" height="565" preserveAspectRatio="none" viewBox="0 0 1440 565"><g mask="url(&quot;#SvgjsMask1070&quot;)" fill="none"><rect width="1440" height="565" x="0" y="0" fill="#0e2a47"></rect><path d="M0,356.917C65.528,360.926,113.83,296.706,162.049,252.153C203.327,214.014,232.648,167.953,258.514,118.059C285.678,65.663,320.913,13.358,316.352,-45.485C311.687,-105.672,278.247,-161.769,233.671,-202.477C191.513,-240.976,131.065,-244.131,77.423,-263.677C19.359,-284.835,-34.048,-334.572,-94.572,-322.084C-155.532,-309.506,-191.496,-248.259,-230.887,-200.065C-269.222,-153.162,-308.457,-105.465,-320.195,-46.037C-332.274,15.117,-329.693,82.529,-297.211,135.732C-265.891,187.031,-198.004,197.19,-149.787,233.073C-96.741,272.55,-66.001,352.879,0,356.917" fill="#0b2036"></path><path d="M1440 1272.354C1569.106 1244.394 1620.711 1089.661 1725.426 1009.1320000000001 1817.944 937.983 1963.489 932.2239999999999 2017.094 828.55 2070.875 724.535 2024.671 598.637 1996.431 484.997 1970.557 380.877 1929.077 283.125 1860.9560000000001 200.23899999999998 1791.4940000000001 115.721 1708.471 38.964000000000055 1603.775 7.232999999999947 1498.63-24.634000000000015 1387.032-5.345000000000027 1281.313 24.562999999999988 1174.758 54.706999999999994 1071.618 99.44900000000001 995.0419999999999 179.44099999999997 916.18 261.822 875.425 369.446 845.75 479.56 812.762 601.968 775.287 730.15 814.105 850.836 854.819 977.415 951.991 1078.473 1062.278 1152.7469999999998 1174.086 1228.045 1308.255 1300.885 1440 1272.354" fill="#113458"></path></g><defs><mask id="SvgjsMask1070"><rect width="1440" height="565" fill="#ffffff"></rect></mask></defs></svg>